<svg xmlns="http://www.w3.org/2000/svg" width="64" height="64" viewBox="0 0 64 64">
  <rect width="64" height="64" rx="14" fill="#111318"/>
  <path d="M15 25 19 10l11 10L36 8l8 12 10-10-2 17H16Z" fill="#d9a630"/>
  <path d="M14 31c0-7 8-11 18-11s18 4 18 11v13c0 8-7 13-16 13-10 0-17-5-17-13v-3c-6 0-9-4-8-9 1-4 4-6 8-4M47 28c5-2 9 1 8 6-1 4-4 7-8 7" fill="#8dd7f4" stroke="#f4f0e7" stroke-width="3" stroke-linejoin="round"/>
  <circle cx="26" cy="35" r="2" fill="#111318"/><circle cx="39" cy="35" r="2" fill="#111318"/>
  <path d="M33 39c1 8 0 15-6 16-4 1-7-2-6-5 4 1 6-2 6-7" fill="none" stroke="#111318" stroke-width="3" stroke-linecap="round"/>
</svg>
